<?xml version="1.0" encoding="utf-8"?>
<!-- Svg Vector Icons : http://www.onlinewebfonts.com/icon -->
<!DOCTYPE svg PUBLIC "-//W3C//DTD SVG 1.1//EN" "http://www.w3.org/Graphics/SVG/1.1/DTD/svg11.dtd">
<svg version="1.1" xmlns="http://www.w3.org/2000/svg" xmlns:xlink="http://www.w3.org/1999/xlink" x="0px" y="0px" viewBox="0 0 1000 1000" enable-background="new 0 0 1000 1000" xml:space="preserve">
<metadata> Svg Vector Icons : http://www.onlinewebfonts.com/icon </metadata>
<g><path d="M959.4,806.3v-490c0-33.8-27.4-61.3-61.3-61.3h-61.3c-33.8,0-61.3,27.4-61.3,61.3v490v30.6h183.8V806.3z M714.4,806.3V101.9c0-33.8-27.4-61.3-61.3-61.3h-61.3c-33.8,0-61.3,27.4-61.3,61.3v704.4v30.6h183.8V806.3z M974.7,898.1H25.3c-8.5,0-15.3,6.9-15.3,15.3v30.6c0,8.5,6.9,15.3,15.3,15.3h949.4c8.5,0,15.3-6.9,15.3-15.3v-30.6C990,905,983.1,898.1,974.7,898.1z M224.4,806.3V683.8c0-33.8-27.4-61.3-61.3-61.3h-61.3c-33.8,0-61.3,27.4-61.3,61.3v122.5v30.6h183.8V806.3z M469.4,806.3V530.6c0-33.8-27.4-61.3-61.3-61.3h-61.3c-33.8,0-61.3,27.4-61.3,61.3v275.6v30.6h183.8V806.3z"/></g>
</svg>